<svg id="a9da8075-60da-4007-9f09-c67c3e58d45b" data-name="레이어 1" xmlns="http://www.w3.org/2000/svg" viewBox="0 0 99.1 99.89"><g id="a14972bf-f72b-4696-83c2-ea1346ba6e86" data-name="b7391208-185b-41b0-8644-8f7fb06e8043"><path d="M84.34,50.09,45.69,89.29a6.34,6.34,0,0,0,0,8.91,6.22,6.22,0,0,0,8.8,0h0l43-43.66a6.53,6.53,0,0,0,0-8.91L54.51,2a6.22,6.22,0,0,0-8.8,0h0a6.34,6.34,0,0,0,0,8.91Z" transform="translate(-0.2 -0.14)"/><path d="M40.68,50.09,2,89.29A6.34,6.34,0,0,0,2,98.2a6.22,6.22,0,0,0,8.8,0h0l43-43.66a6.51,6.51,0,0,0,0-8.91L10.84,2A6.22,6.22,0,0,0,2,2H2a6.34,6.34,0,0,0,0,8.91Z" transform="translate(-0.2 -0.14)"/></g></svg>