<svg id="bcfb797b-42bc-46f0-b0a8-9300f9c5daaf" data-name="Capa 1" xmlns="http://www.w3.org/2000/svg" viewBox="0 0 191.14 192.7"><g id="b7391208-185b-41b0-8644-8f7fb06e8043" data-name="Double Chevron Left"><path d="M29.64,96.35l74.54-75.61a12.21,12.21,0,0,0,0-17.18,12,12,0,0,0-17,0l-83,84.2a12.59,12.59,0,0,0,0,17.19l83,84.2a12,12,0,0,0,17,0,12.21,12.21,0,0,0,0-17.18Z" transform="translate(-0.78 0)"/><path d="M113.85,96.35l74.54-75.61a12.21,12.21,0,0,0,0-17.18,12,12,0,0,0-17,0l-83,84.2a12.57,12.57,0,0,0,0,17.19l83,84.2a12,12,0,0,0,17,0,12.21,12.21,0,0,0,0-17.18Z" transform="translate(-0.78 0)"/></g></svg>