<svg id="b0b66e7d-1bf8-48e8-9529-9164874b10fa" data-name="레이어 1" xmlns="http://www.w3.org/2000/svg" viewBox="0 0 81.43 98.8"><g id="e1681079-2d65-48e1-9b5a-eb4f496457f2" data-name="Layer 1"><path d="M50.08.6C27.61.6,9.39,7.24,9.39,15.44V27.61c0,8.2,18.22,14.84,40.69,14.84s40.69-6.64,40.69-14.84V15.44C90.77,7.24,72.55.6,50.08.6Z" transform="translate(-9.35 -0.6)"/><path d="M50.08,49.55c-21.46,0-39.15-6.06-40.69-13.74-.08.36,0,20.1,0,20.1,0,8.2,18.22,14.84,40.69,14.84s40.69-6.64,40.69-14.84c0,0,0-19.74,0-20.1C89.2,43.49,71.54,49.55,50.08,49.55Z" transform="translate(-9.35 -0.6)"/><path d="M90.74,64.45c-1.55,7.68-19.2,13.74-40.66,13.74S10.93,72.13,9.38,64.45V84.56c0,8.2,18.22,14.84,40.69,14.84s40.69-6.64,40.69-14.84Z" transform="translate(-9.35 -0.6)"/></g></svg>