<svg id="e57fdebc-1467-4e7c-8309-d8d547331071" data-name="레이어 1" xmlns="http://www.w3.org/2000/svg" viewBox="0 0 89.65 99.38"><g id="ac70428a-f454-4d3e-8d25-314b5dfc01b3" data-name="surface1"><path d="M56.9,20.68h11L51.07,3V14.84A5.84,5.84,0,0,0,56.9,20.68Z" transform="translate(-5.18 -0.31)"/><path d="M68.07,46.18A26.76,26.76,0,1,0,94.82,72.94,26.78,26.78,0,0,0,68.07,46.18Zm14.37,29L69.32,89.3a1.81,1.81,0,0,1-2.62,0L53.6,75.22a1.81,1.81,0,0,1,.09-2.53,1.83,1.83,0,0,1,2.56.09l10,10.75V57.94a1.79,1.79,0,0,1,3.58,0V83.53l10-10.75a1.78,1.78,0,1,1,2.6,2.44Z" transform="translate(-5.18 -0.31)"/><path d="M38.69,65.24H19.24a1.8,1.8,0,0,1,0-3.59H39.88a31.42,31.42,0,0,1,4.55-7.83H19.24a1.79,1.79,0,1,1,0-3.58H47.83a30.78,30.78,0,0,1,20.26-7.71c.74,0,1.34.07,2.24.14V24.26H56.9a9.43,9.43,0,0,1-9.41-9.42V.31H13.15a8,8,0,0,0-8,8.08V76.72a7.93,7.93,0,0,0,8,8h27a29.79,29.79,0,0,1-2.4-11.82A30.26,30.26,0,0,1,38.69,65.24ZM19.24,39H41.92a1.79,1.79,0,0,1,0,3.58H19.24a1.79,1.79,0,1,1,0-3.58Z" transform="translate(-5.18 -0.31)"/></g></svg>