<svg id="b5fd41b5-4857-41da-83a3-c37b0bb90138" data-name="레이어 1" xmlns="http://www.w3.org/2000/svg" viewBox="0 0 81.99 100.17"><path d="M88.64,11.34H85.71v72A8.68,8.68,0,0,1,77,92H23.77v2.67a5.54,5.54,0,0,0,5.53,5.53H88.63a5.54,5.54,0,0,0,5.54-5.53V16.87A5.53,5.53,0,0,0,88.64,11.34Z" transform="translate(-12.18)"/><path d="M47.37,88.83H77a5.54,5.54,0,0,0,5.54-5.53V5.53A5.54,5.54,0,0,0,77,0H37.5V1.83a5.68,5.68,0,0,1,0,.59V17.57a7.8,7.8,0,0,1-7.79,7.8H14.58l-.48,0H12.18v58a5.53,5.53,0,0,0,5.53,5.53H47.37ZM48.48,70H29.14a2.62,2.62,0,0,1,0-5.23H48.5a2.62,2.62,0,1,1,0,5.23ZM67.84,56.68H29.14a2.62,2.62,0,0,1,0-5.23h38.7a2.62,2.62,0,0,1,0,5.23ZM29.14,37.27h38.7a2.62,2.62,0,0,1,0,5.23H29.14a2.62,2.62,0,0,1,0-5.23Z" transform="translate(-12.18)"/><path d="M14.58,22.23h15.2a4.64,4.64,0,0,0,4.6-4.6V2.42A2.33,2.33,0,0,0,32,.08a2.27,2.27,0,0,0-1.63.69L12.93,18.25A2.33,2.33,0,0,0,14.58,22.23Z" transform="translate(-12.18)"/></svg>