<svg id="Capa_1" enable-background="new 0 0 512 512" height="512" viewBox="0 0 512 512" width="512" xmlns="http://www.w3.org/2000/svg"><g><path d="m496 166v-120c0-24.853-20.147-46-45-46s-45 21.147-45 46v135h75c8.284 0 15-6.716 15-15z"/><path d="m46 512h225.383c-9.518-12.574-15.383-28.052-15.383-45v-15h-225c-8.284 0-15 6.714-15 15v15c0 16.567 13.431 30 30 30z"/><path d="m76 422h195c8.284 0 15 6.714 15 15v30c0 24.853 20.147 45 45 45s45-20.147 45-45v-421c0-16.948 5.865-33.426 15.383-46-6.806 0-266.333 0-255.383 0-33.137 0-60 27.862-60 61zm180-361h60c8.291 0 15 6.709 15 15s-6.709 15-15 15h-60c-8.291 0-15-6.709-15-15s6.709-15 15-15zm0 90h60c8.291 0 15 6.709 15 15s-6.709 15-15 15h-60c-8.291 0-15-6.709-15-15s6.709-15 15-15zm0 90h60c8.291 0 15 6.709 15 15s-6.709 15-15 15h-60c-8.291 0-15-6.709-15-15s6.709-15 15-15zm0 90h60c8.291 0 15 6.709 15 15s-6.709 15-15 15h-60c-8.291 0-15-6.709-15-15s6.709-15 15-15zm-129.111-265.605c5.859-5.859 15.352-5.859 21.211 0l11.895 11.895 34.395-34.395c5.859-5.859 15.352-5.859 21.211 0s5.859 15.352 0 21.211l-45 45c-5.858 5.858-15.353 5.858-21.211 0l-22.5-22.5c-5.861-5.86-5.861-15.352-.001-21.211zm0 90c5.859-5.859 15.352-5.859 21.211 0l11.895 11.895 34.395-34.395c5.859-5.859 15.352-5.859 21.211 0s5.859 15.352 0 21.211l-45 45c-5.858 5.858-15.353 5.858-21.211 0l-22.5-22.5c-5.861-5.86-5.861-15.352-.001-21.211zm0 90c5.859-5.859 15.352-5.859 21.211 0l11.895 11.895 34.395-34.395c5.859-5.859 15.352-5.859 21.211 0s5.859 15.352 0 21.211l-45 45c-5.858 5.858-15.353 5.858-21.211 0l-22.5-22.5c-5.861-5.86-5.861-15.352-.001-21.211zm0 90c5.859-5.859 15.352-5.859 21.211 0l11.895 11.895 34.395-34.395c5.859-5.859 15.352-5.859 21.211 0s5.859 15.352 0 21.211l-45 45c-5.858 5.858-15.353 5.858-21.211 0l-22.5-22.5c-5.861-5.86-5.861-15.352-.001-21.211z"/></g></svg>