<svg id="a5b6e330-e051-4e63-b049-43c4f78fd2d6" data-name="레이어 1" xmlns="http://www.w3.org/2000/svg" viewBox="0 0 89.56 98.39"><path d="M81,79a6.32,6.32,0,0,0-6.31,6.31V99.19L94.84,79Z" transform="translate(-5.29 -0.81)"/><path d="M23,13.42V86.58A12.64,12.64,0,0,0,35.56,99.19H68.35V85.32A12.66,12.66,0,0,1,81,72.7H94.84V13.42ZM60.78,64.5H38.08V58.2h22.7ZM79.71,49.37H38.08V43.06H79.7v6.31Zm0-15.14H38.08v-6.3H79.7v6.3Z" transform="translate(-5.29 -0.81)"/><path d="M5.29.81V74A12.64,12.64,0,0,0,16.64,86.51V7.11H77.19V.81Z" transform="translate(-5.29 -0.81)"/></svg>