<svg id="abc44ce3-a951-427f-8ea3-ec4978b3d47c" data-name="레이어 1" xmlns="http://www.w3.org/2000/svg" viewBox="0 0 99.98 100.24"><path d="M66.77,56.87A2.08,2.08,0,0,0,67,54.65l-.1-.23a10.24,10.24,0,0,0,2-6.42,3.34,3.34,0,0,1,.51-2.15,2.09,2.09,0,0,0,1.43-1.25c.24-.57,2.24-5.69,2.24-9.13a2.16,2.16,0,0,0-.06-.51,5.45,5.45,0,0,0-2-3V20.85C71,14.12,69,11.36,66.8,9.76,66.39,6.52,62.92,0,50.14,0,37.2,0,29.26,12.13,29.26,20.85V31.92a5.42,5.42,0,0,0-2,3,2.22,2.22,0,0,0-.06.51c0,3.43,2,8.56,2.24,9.13a1.79,1.79,0,0,0,1.27,1.2c.23.11.66.72.66,2.2,0,4,3,8.38,6.18,11.31-.44,2.73-2.48,10-6.84,11.77L12.15,77.26A14.52,14.52,0,0,0,2.59,87.58l-2.51,10A2.06,2.06,0,0,0,.46,99.4a2.09,2.09,0,0,0,1.65.81h0l54-.06A2.11,2.11,0,0,0,58.23,98V73a6.26,6.26,0,0,1,3.38-5.52,2.1,2.1,0,0,0,1.1-1.53A18.73,18.73,0,0,1,66.77,56.87Z" transform="translate(-0.02 0.03)"/><path d="M97.91,70.88H95.82V68.79a14.62,14.62,0,1,0-29.23,0v2.09H64.5A2.1,2.1,0,0,0,62.41,73V98a2.1,2.1,0,0,0,2.09,2.09H97.91A2.1,2.1,0,0,0,100,98V73A2.1,2.1,0,0,0,97.91,70.88ZM83.29,87v2.73a2.09,2.09,0,1,1-4.17,0V87A4.11,4.11,0,0,1,77,83.42a4.18,4.18,0,1,1,8.35,0A4.11,4.11,0,0,1,83.29,87Zm8.36-16.07H70.76V68.79a10.45,10.45,0,0,1,20.89,0v2.09Z" transform="translate(-0.02 0.03)"/></svg>